<svg width="156" height="51" viewBox="0 0 156 51" fill="none" xmlns="http://www.w3.org/2000/svg">
<path d="M17.9346 43.3568C17.9346 44.2722 18.1178 45.0011 18.4845 45.5418C18.851 46.0843 19.4033 46.3554 20.1414 46.3554C20.6831 46.3554 21.1338 46.2348 21.4936 45.9939C21.853 45.7542 22.1332 45.4214 22.3342 44.9967V41.4026C22.1427 40.9722 21.8718 40.622 21.5215 40.351C21.1712 40.0797 20.7158 39.9449 20.1554 39.9449C19.4174 39.9449 18.8629 40.2477 18.4915 40.8516C18.1202 41.4572 17.9346 42.2434 17.9346 43.209V43.3568ZM17.0938 43.209C17.0938 41.9995 17.3497 41.0325 17.861 40.3063C18.3725 39.5791 19.0857 39.2161 20.0012 39.2161C20.5197 39.2161 20.9736 39.3266 21.3639 39.546C21.7538 39.7656 22.0772 40.0754 22.3342 40.4772V36.0078H23.1748V46.9365H22.4882L22.3691 45.836C22.1122 46.2378 21.7853 46.5462 21.3883 46.7615C20.9914 46.9766 20.5243 47.0843 19.9873 47.0843C19.0811 47.0843 18.3725 46.7456 17.861 46.0714C17.3497 45.397 17.0938 44.4916 17.0938 43.3568V43.209Z" fill="#27272F"/>
<path d="M29.3702 39.9333C28.7257 39.9333 28.1954 40.1642 27.7799 40.6277C27.3641 41.0896 27.1213 41.6765 27.0514 42.3852L27.0724 42.4283H31.4158V42.2518C31.4158 41.5802 31.2393 41.025 30.8869 40.5889C30.5342 40.1527 30.0288 39.9333 29.3702 39.9333ZM29.4472 47.087C28.4665 47.087 27.67 46.7398 27.0582 46.0467C26.4465 45.3523 26.1406 44.4614 26.1406 43.3738V42.9878C26.1406 41.8946 26.45 40.9935 27.0689 40.2832C27.6876 39.5745 28.4546 39.2188 29.3702 39.2188C30.2902 39.2188 31.0013 39.5143 31.5033 40.1053C32.0054 40.6965 32.2565 41.4914 32.2565 42.4915V43.1429H26.9812V43.3738C26.9812 44.2375 27.1995 44.955 27.6362 45.5245C28.0728 46.0941 28.6767 46.3782 29.4472 46.3782C29.9095 46.3782 30.3344 46.3035 30.7223 46.1514C31.1098 45.9994 31.432 45.7956 31.689 45.5388L32.0464 46.1127C31.7801 46.3926 31.431 46.625 30.9989 46.81C30.567 46.9937 30.0498 47.087 29.4472 47.087Z" fill="#27272F"/>
<path d="M36.4076 37.418V39.3591H38.075V40.0451H36.4076V44.9848C36.4076 45.4799 36.4975 45.8314 36.6773 46.0395C36.8571 46.2476 37.0965 46.3507 37.3955 46.3507C37.4983 46.3507 37.5973 46.345 37.6932 46.3335C37.7888 46.3221 37.9022 46.302 38.0329 46.2733L38.1592 46.8974C38.047 46.9533 37.908 46.9993 37.7423 47.0338C37.5765 47.0682 37.4116 47.0868 37.2484 47.0868C36.716 47.0868 36.3013 46.9175 36.0049 46.5819C35.7082 46.246 35.5599 45.7138 35.5599 44.9848V40.0451H34.25V39.3591H35.5599V37.418H36.4076Z" fill="#27272F"/>
<path d="M43.6671 39.9333C43.0226 39.9333 42.4923 40.1642 42.0767 40.6277C41.661 41.0896 41.4181 41.6765 41.3482 42.3852L41.3692 42.4283H45.7127V42.2518C45.7127 41.5802 45.5364 41.025 45.1837 40.5889C44.831 40.1527 44.3257 39.9333 43.6671 39.9333ZM43.744 47.087C42.7632 47.087 41.967 46.7398 41.3551 46.0467C40.7432 45.3523 40.4375 44.4614 40.4375 43.3738V42.9878C40.4375 41.8946 40.7468 40.9935 41.3656 40.2832C41.9844 39.5745 42.7515 39.2188 43.6671 39.2188C44.5867 39.2188 45.2979 39.5143 45.8001 40.1053C46.3022 40.6965 46.5535 41.4914 46.5535 42.4915V43.1429H41.2781V43.3738C41.2781 44.2375 41.4963 44.955 41.9331 45.5245C42.3697 46.0941 42.9735 46.3782 43.744 46.3782C44.2066 46.3782 44.6317 46.3035 45.0192 46.1514C45.4068 45.9994 45.729 45.7956 45.9856 45.5388L46.3432 46.1127C46.0769 46.3926 45.7277 46.625 45.2961 46.81C44.8636 46.9937 44.3464 47.087 43.744 47.087Z" fill="#27272F"/>
<path d="M52.1705 46.3782C52.7075 46.3782 53.1828 46.2203 53.5959 45.9019C54.0095 45.5848 54.2158 45.1443 54.2158 44.579H54.9654L54.9795 44.6205C54.9984 45.3208 54.7228 45.9076 54.1528 46.3782C53.5831 46.8501 52.9222 47.087 52.1705 47.087C51.1618 47.087 50.3757 46.7311 49.8131 46.0209C49.25 45.3122 48.9688 44.404 48.9688 43.2963V43.0021C48.9688 41.9002 49.2492 40.9935 49.8095 40.2832C50.3699 39.5745 51.1547 39.2188 52.1635 39.2188C52.976 39.2188 53.6532 39.4641 54.1951 39.9548C54.7369 40.4455 54.9984 41.0896 54.9795 41.8889L54.9654 41.9304H54.2158C54.2158 41.3235 54.0174 40.8385 53.6206 40.477C53.2234 40.1139 52.738 39.9333 52.1635 39.9333C51.3694 39.9333 50.7786 40.2259 50.3911 40.8099C50.0031 41.3939 49.8095 42.1241 49.8095 43.0021V43.2963C49.8095 44.1888 50.0031 44.9248 50.3911 45.5073C50.7786 46.0884 51.3716 46.3782 52.1705 46.3782Z" fill="#27272F"/>
<path d="M59.2359 37.418V39.3591H60.9033V40.0451H59.2359V44.9848C59.2359 45.4799 59.3258 45.8314 59.5052 46.0395C59.6851 46.2476 59.9246 46.3507 60.2235 46.3507C60.3262 46.3507 60.4254 46.345 60.5215 46.3335C60.6172 46.3221 60.7305 46.302 60.861 46.2733L60.9871 46.8974C60.8751 46.9533 60.7362 46.9993 60.5704 47.0338C60.4042 47.0682 60.2398 47.0868 60.0767 47.0868C59.544 47.0868 59.1296 46.9175 58.8329 46.5819C58.5366 46.246 58.388 45.7138 58.388 44.9848V40.0451H57.0781V39.3591H58.388V37.418H59.2359Z" fill="#27272F"/>
<path d="M64.6306 46.9365H63.7969V39.3565H64.6306V46.9365ZM64.6306 37.1845H63.7969V36.0078H64.6306V37.1845Z" fill="#27272F"/>
<path d="M70.2535 45.0411L70.4987 45.9306H70.5405L70.8068 45.0411L72.8662 39.3594H73.7348L70.8558 46.9393H70.183L67.2969 39.3594H68.1654L70.2535 45.0411Z" fill="#27272F"/>
<path d="M79.0577 39.9333C78.4131 39.9333 77.8831 40.1642 77.4673 40.6277C77.0516 41.0896 76.8086 41.6765 76.7386 42.3852L76.7597 42.4283H81.1034V42.2518C81.1034 41.5802 80.9271 41.025 80.5743 40.5889C80.2216 40.1527 79.7164 39.9333 79.0577 39.9333ZM79.1348 47.087C78.1538 47.087 77.3576 46.7398 76.7456 46.0467C76.1341 45.3523 75.8281 44.4614 75.8281 43.3738V42.9878C75.8281 41.8946 76.1372 40.9935 76.7562 40.2832C77.3748 39.5745 78.1424 39.2188 79.0577 39.2188C79.9778 39.2188 80.6885 39.5143 81.1912 40.1053C81.6929 40.6965 81.9442 41.4914 81.9442 42.4915V43.1429H76.6685V43.3738C76.6685 44.2375 76.8871 44.955 77.3236 45.5245C77.7605 46.0941 78.3641 46.3782 79.1348 46.3782C79.5969 46.3782 80.0219 46.3035 80.4099 46.1514C80.7974 45.9994 81.1197 45.7956 81.3767 45.5388L81.7339 46.1127C81.4676 46.3926 81.1184 46.625 80.6863 46.81C80.2542 46.9937 79.7371 47.087 79.1348 47.087Z" fill="#27272F"/>
<path d="M91.4389 46.3428C92.0835 46.3428 92.6417 46.1907 93.1134 45.8836C93.5847 45.578 93.9048 45.1849 94.0732 44.7029V43.2538H92.2025C91.5209 43.2538 90.9579 43.4159 90.5143 43.7402C90.0704 44.0643 89.8486 44.4561 89.8486 44.9137C89.8486 45.3427 89.9897 45.6885 90.2723 45.951C90.5549 46.2123 90.9438 46.3428 91.4389 46.3428ZM94.2271 46.9382C94.176 46.6728 94.1372 46.4432 94.1116 46.2524C94.086 46.0602 94.0732 45.8635 94.0732 45.6627C93.8114 46.0745 93.4449 46.4144 92.9732 46.6828C92.5014 46.9511 91.9596 47.086 91.3481 47.086C90.6052 47.086 90.0294 46.8879 89.6211 46.4933C89.2124 46.0988 89.0078 45.5636 89.0078 44.8851C89.0078 44.2079 89.3045 43.6598 89.8975 43.2394C90.491 42.8189 91.2612 42.6095 92.2096 42.6095H94.0732V41.6697C94.0732 41.1289 93.9013 40.7026 93.5583 40.3957C93.2148 40.0871 92.7303 39.9323 92.1042 39.9323C91.5301 39.9323 91.0663 40.0728 90.7141 40.3527C90.3614 40.634 90.185 40.9854 90.185 41.4115H89.4073L89.3932 41.3685C89.3654 40.7989 89.6092 40.2981 90.1255 39.8663C90.6417 39.4344 91.315 39.2178 92.1465 39.2178C92.9776 39.2178 93.6456 39.4301 94.1499 39.8562C94.6543 40.2809 94.9065 40.8907 94.9065 41.6841V45.4116C94.9065 45.677 94.9219 45.9367 94.9524 46.1892C94.9828 46.4403 95.033 46.6914 95.1027 46.9382H94.2271Z" fill="#27272F"/>
<path d="M98.833 43.3585C98.833 44.2739 99.0173 45.0028 99.3867 45.5435C99.7553 46.086 100.309 46.3571 101.047 46.3571C101.579 46.3571 102.026 46.2365 102.388 45.9956C102.75 45.7559 103.032 45.4245 103.233 45.0041V41.39C103.041 40.9653 102.769 40.6181 102.417 40.3498C102.064 40.0814 101.612 39.9466 101.061 39.9466C100.323 39.9466 99.7672 40.2507 99.3934 40.8576C99.0199 41.4646 98.833 42.2494 98.833 43.2108V43.3585ZM97.9922 43.2108C97.9922 42.0013 98.2479 41.0342 98.7594 40.3081C99.2708 39.5808 99.9841 39.2178 100.9 39.2178C101.437 39.2178 101.904 39.334 102.301 39.565C102.698 39.7959 103.025 40.1245 103.282 40.5492L103.401 39.3582H104.081V46.9799C104.081 47.9469 103.814 48.6914 103.282 49.2152C102.749 49.7389 101.995 50 101.019 50C100.654 50 100.266 49.9556 99.8523 49.8665C99.4392 49.7776 99.0781 49.6571 98.7699 49.5021L98.9313 48.7947C99.2346 48.9439 99.5582 49.0574 99.9013 49.1347C100.245 49.2122 100.612 49.2496 101.005 49.2496C101.752 49.2496 102.31 49.0588 102.679 48.6757C103.048 48.2926 103.233 47.7274 103.233 46.9799V45.9081C102.976 46.2869 102.65 46.5781 102.256 46.7804C101.861 46.9842 101.404 47.086 100.886 47.086C99.9793 47.086 99.2708 46.7474 98.7594 46.0702C98.2479 45.393 97.9922 44.489 97.9922 43.3585V43.2108Z" fill="#27272F"/>
<path d="M110.23 39.9323C109.585 39.9323 109.055 40.1632 108.639 40.6267C108.223 41.0886 107.981 41.6756 107.911 42.3842L107.932 42.4273H112.275V42.2508C112.275 41.5793 112.099 41.024 111.746 40.588C111.394 40.1517 110.888 39.9323 110.23 39.9323ZM110.307 47.086C109.326 47.086 108.529 46.7388 107.918 46.0457C107.306 45.3513 107 44.4604 107 43.3728V42.9869C107 41.8936 107.31 40.9925 107.929 40.2822C108.547 39.5736 109.314 39.2178 110.23 39.2178C111.15 39.2178 111.861 39.5133 112.363 40.1043C112.865 40.6956 113.116 41.4904 113.116 42.4905V43.1419H107.841V43.3728C107.841 44.2365 108.059 44.954 108.496 45.5236C108.932 46.0931 109.536 46.3773 110.307 46.3773C110.769 46.3773 111.194 46.3025 111.582 46.1504C111.969 45.9984 112.292 45.7947 112.549 45.5378L112.906 46.1117C112.639 46.3916 112.29 46.624 111.859 46.809C111.426 46.9928 110.909 47.086 110.307 47.086Z" fill="#27272F"/>
<path d="M116.696 39.3592L116.773 40.6764C117.021 40.2145 117.35 39.8558 117.761 39.6004C118.172 39.3463 118.66 39.2188 119.225 39.2188C120.047 39.2188 120.673 39.4698 121.102 39.972C121.532 40.474 121.747 41.2575 121.747 42.3222V46.9392H120.907V42.3293C120.907 41.4612 120.744 40.8471 120.419 40.487C120.095 40.1268 119.634 39.9476 119.036 39.9476C118.438 39.9476 117.956 40.0954 117.589 40.3895C117.222 40.6837 116.957 41.0782 116.794 41.5732V46.9392H115.953V39.3592H116.696Z" fill="#27272F"/>
<path d="M127.866 46.3773C128.402 46.3773 128.878 46.2193 129.291 45.9009C129.705 45.5838 129.911 45.1433 129.911 44.578H130.661L130.675 44.6195C130.694 45.3198 130.418 45.9066 129.848 46.3773C129.278 46.8492 128.618 47.086 127.866 47.086C126.857 47.086 126.071 46.7301 125.508 46.0199C124.945 45.3112 124.664 44.403 124.664 43.2953V43.0011C124.664 41.8993 124.944 40.9925 125.504 40.2822C126.065 39.5736 126.85 39.2178 127.858 39.2178C128.671 39.2178 129.349 39.4631 129.89 39.9538C130.432 40.4445 130.694 41.0886 130.675 41.8879L130.661 41.9294H129.911C129.911 41.3225 129.713 40.8375 129.316 40.476C128.919 40.1129 128.433 39.9323 127.858 39.9323C127.065 39.9323 126.473 40.2249 126.086 40.8089C125.698 41.3929 125.504 42.1231 125.504 43.0011V43.2953C125.504 44.1878 125.698 44.9239 126.086 45.5063C126.473 46.0874 127.067 46.3773 127.866 46.3773Z" fill="#27272F"/>
<path d="M135.778 44.8863L136.044 45.7901H136.086L138.377 39.3594H139.316L136.023 48.1518C135.827 48.6654 135.572 49.1016 135.259 49.4617C134.946 49.8203 134.489 50.0011 133.886 50.0011C133.788 50.0011 133.669 49.9911 133.529 49.9696C133.389 49.9481 133.286 49.9266 133.221 49.9035L133.319 49.202C133.375 49.212 133.465 49.222 133.589 49.2335C133.712 49.245 133.802 49.2507 133.859 49.2507C134.223 49.2507 134.515 49.1216 134.734 48.8619C134.953 48.6037 135.141 48.2708 135.295 47.8646L135.694 46.8418L132.766 39.3594H133.697L135.778 44.8863Z" fill="#27272F"/>
<path d="M30.832 20.1744L28.465 27.6925H7.02344V26.9333H8.05988C9.22517 26.9333 10.009 26.6379 10.4114 26.044C10.8134 25.4514 11.0147 24.3611 11.0147 22.7726V4.90407C11.0147 3.0589 10.7542 1.90553 10.2334 1.44656C9.7126 0.988493 8.98818 0.759234 8.05988 0.759234H7.02344V0H19.5696V0.759234C18.4146 0.759234 17.4938 0.866808 16.8082 1.0833C16.1221 1.30019 15.6376 1.6269 15.3541 2.06601C15.0701 2.50383 14.9287 3.60563 14.9287 5.36877V22.7726C14.9287 24.1645 15.1297 25.0396 15.532 25.3954C15.9342 25.7513 17.1564 25.9289 19.1985 25.9289H21.225C22.8648 25.9289 24.1539 25.8302 25.0925 25.6349C26.031 25.4382 26.9126 24.936 27.7378 24.1257C28.5628 23.3162 29.3725 21.9534 30.1667 20.0351L30.832 20.1744Z" fill="#27272F"/>
<path d="M54.7822 22.2516L52.9159 27.6922H36.1953V27.0984H36.9707C37.73 27.0984 38.3097 26.9044 38.7094 26.5173C39.1093 26.1284 39.3093 25.2488 39.3093 23.8759V9.78361C39.3093 8.3141 39.1154 7.41468 38.7277 7.08753C38.3399 6.76042 37.7543 6.59684 36.9707 6.59684H36.1953V6.00293H52.9159L53.1584 10.7531H52.5283C52.2457 9.28275 51.8397 8.32159 51.3106 7.8697C50.7815 7.41732 49.786 7.19071 48.324 7.19071H42.3747V15.7577H47.1362C48.2512 15.7577 49.0814 15.5756 49.6264 15.2128C50.1717 14.8481 50.4808 13.98 50.5531 12.6071H51.1351V20.1552H50.5531C50.416 18.6932 50.0505 17.7907 49.4571 17.4481C48.8632 17.1037 48.0894 16.9327 47.1362 16.9327H42.3747V24.0809C42.3747 25.1069 42.4796 25.7682 42.6899 26.0622C42.8997 26.3577 43.3926 26.504 44.1681 26.504H47.8394C49.3579 26.504 50.5474 26.2615 51.4076 25.7779C52.2678 25.2933 53.1826 24.1184 54.1521 22.2516H54.7822Z" fill="#27272F"/>
<path d="M81.7039 16.4609H81.304C80.4958 16.4609 79.9549 16.6915 79.6802 17.1522C79.4055 17.613 79.2684 18.4405 79.2684 19.6358V26.2761C76.9012 27.5516 74.3652 28.19 71.659 28.19C67.8788 28.19 64.9345 27.1094 62.8261 24.9485C60.7182 22.7882 59.6641 20.201 59.6641 17.1884C59.6641 15.0875 60.2293 13.0691 61.3602 11.1305C62.4907 9.1906 63.8719 7.77047 65.5041 6.86486C67.1355 5.9597 69.0176 5.50781 71.1502 5.50781C72.5558 5.50781 74.1875 5.85477 76.0455 6.54918C76.6513 6.77579 77.0507 6.88955 77.2447 6.88955C77.7129 6.88955 77.9717 6.42883 78.0202 5.50781H78.6136L79.1714 12.3544H78.6136C77.4021 8.54072 75.0155 6.6356 71.4531 6.6356C68.7632 6.6356 66.74 7.61263 65.3829 9.56668C64.0254 11.522 63.3473 13.8323 63.3473 16.498C63.3473 19.567 64.1409 22.1008 65.7281 24.1007C67.3153 26.0993 69.2963 27.0997 71.6713 27.0997C73.2546 27.0997 74.7488 26.6994 76.1544 25.9V19.6358C76.1544 18.3762 75.9643 17.531 75.5847 17.1033C75.2051 16.6761 74.4459 16.4609 73.3071 16.4609V15.8551H81.7039V16.4609Z" fill="#27272F"/>
<path d="M117.753 17.1522C117.753 10.165 115.402 6.67131 110.701 6.67131C109.409 6.67131 108.255 7.01302 107.242 7.69421C106.228 8.37715 105.406 9.47321 104.776 10.9841C104.146 12.4951 103.831 14.4019 103.831 16.7034C103.831 19.854 104.434 22.3663 105.642 24.24C106.85 26.1138 108.54 27.0507 110.713 27.0507C113.007 27.0507 114.754 26.1681 115.954 24.4036C117.153 22.6387 117.753 20.2213 117.753 17.1522ZM121.412 16.7162C121.412 19.9387 120.402 22.6577 118.383 24.8701C116.363 27.0838 113.819 28.19 110.749 28.19C108.666 28.19 106.84 27.7006 105.273 26.7236C103.706 25.7466 102.464 24.408 101.547 22.7075C100.63 21.0074 100.172 19.026 100.172 16.7634C100.172 13.5008 101.224 10.8091 103.328 8.6884C105.432 6.56817 107.991 5.50781 111.004 5.50781C112.991 5.50781 114.752 6.00114 116.287 6.98525C117.821 7.97105 119.059 9.30699 120.001 10.9899C120.941 12.6745 121.412 14.5827 121.412 16.7162Z" fill="#27272F"/>
<path d="M148.847 6.59684H148.083C147.154 6.59684 146.538 6.82345 146.235 7.27534C145.933 7.72727 145.781 8.55658 145.781 9.75892V28.0436H145.2L130.901 10.5838V23.9358C130.901 25.3577 131.098 26.2399 131.489 26.583C131.881 26.926 132.452 27.0984 133.204 27.0984H133.967V27.6922H126.418V27.0984H127.17C127.84 27.0984 128.395 26.9291 128.836 26.5887C129.276 26.2501 129.496 25.3648 129.496 23.9358V8.85067C128.769 8.00285 128.085 7.41468 127.442 7.08753C126.8 6.76042 126.059 6.59684 125.219 6.59684V6.00293H131.108L144.363 22.2759V9.75892C144.363 8.34587 144.163 7.46495 143.763 7.1175C143.363 6.77054 142.792 6.59684 142.049 6.59684H141.298V6.00293H148.847V6.59684Z" fill="#27272F"/>
<path d="M3.14016 15.9259C3.14016 16.7927 2.43733 17.4955 1.57016 17.4955C0.703028 17.4955 0 16.7927 0 15.9259C0 15.0578 0.703028 14.355 1.57016 14.355C2.43733 14.355 3.14016 15.0578 3.14016 15.9259Z" fill="#27272F"/>
<path d="M155.905 15.9264C155.905 16.7932 155.203 17.496 154.335 17.496C153.469 17.496 152.766 16.7932 152.766 15.9264C152.766 15.0583 153.469 14.3555 154.335 14.3555C155.203 14.3555 155.905 15.0583 155.905 15.9264Z" fill="#27272F"/>
<path d="M92.6768 16.0215C92.6768 17.1907 91.7258 18.1421 90.557 18.1421C89.3881 18.1421 88.4367 17.1907 88.4367 16.0215C88.4367 14.8535 89.3881 13.9021 90.557 13.9021C91.7258 13.9021 92.6768 14.8535 92.6768 16.0215ZM92.8231 7.10705C93.2834 6.76709 93.8328 6.59782 94.4712 6.59782H95.2463V6.00391H85.9531V6.59782H86.7282C87.5681 6.59782 88.1664 6.7984 88.5218 7.19742C88.8772 7.59774 89.0548 8.48041 89.0548 9.84453V12.5662C87.778 13.1473 86.8865 14.4329 86.8865 15.9267C86.8865 17.4187 87.778 18.7043 89.0548 19.2867V23.8521C89.0548 25.0805 88.9155 25.9283 88.6369 26.3961C88.3582 26.8652 87.722 27.0993 86.7282 27.0993H85.9531V27.6932H95.2463V27.0993H94.4712C94.0669 27.0993 93.6688 27.016 93.2773 26.8511C92.8853 26.6858 92.5965 26.4636 92.4109 26.1836C92.2253 25.9054 92.1323 25.1276 92.1323 23.8521V19.2739C93.3954 18.6858 94.275 17.4089 94.275 15.9267C94.275 14.443 93.3954 13.1662 92.1323 12.5781V9.84453C92.1323 8.35961 92.3624 7.44563 92.8231 7.10705Z" fill="#27272F"/>
</svg>
