<svg width="40" height="40" viewBox="0 0 40 40" fill="none" xmlns="http://www.w3.org/2000/svg">
<circle cx="20" cy="20" r="20" fill="white"/>
<path d="M26.2467 22.7467C26.2467 25.7017 23.89 27.6383 20.375 27.6383C17.2833 27.6383 14.1733 26.23 14.19 23.8067C14.1933 23.075 14.7367 22.405 15.4617 22.405C17.2833 22.405 17.2667 25.1217 20.165 25.1217C22.2 25.1217 22.895 24.0067 22.895 23.2317C22.895 20.425 14.1033 22.145 14.1033 16.87C14.1033 14.015 16.4383 12.045 20.11 12.2617C23.6117 12.4683 25.6633 14.015 25.8617 15.4583C25.96 16.4017 25.335 17.1367 24.2483 17.1367C22.665 17.1367 22.5033 15.0167 19.775 15.0167C18.545 15.0167 17.5067 15.53 17.5067 16.645C17.5067 18.9733 26.2467 17.6217 26.2467 22.7467ZM40 20C40 31.045 31.045 40 20 40C8.955 40 0 31.045 0 20C0 8.955 8.955 0 20 0C31.045 0 40 8.955 40 20ZM30.6817 21.9117C32.0017 14.3617 25.4167 7.9 17.9917 9.29333C12.3317 5.83167 5.83667 12.43 9.30833 18.0717C7.95667 25.6033 14.54 32.15 22.0267 30.72C27.695 34.1567 34.1717 27.55 30.6817 21.9117Z" fill="#00C3FF"/>
</svg>
