<svg width="800" height="800" viewBox="0 0 800 800" fill="none" xmlns="http://www.w3.org/2000/svg">
<circle cx="400" cy="400" r="400" fill="#F9F1E4" fill-opacity="0.3"/>
<circle cx="400" cy="400" r="325" fill="#F9F1E4"/>
<path fill-rule="evenodd" clip-rule="evenodd" d="M564.417 278.386L564.446 278.055L564.442 277.945C564.672 274.158 563.389 270.431 560.872 267.586L560.865 267.578C558.263 264.647 554.571 262.903 550.643 262.769L550.548 262.765H550.453C550.456 262.765 550.452 262.765 550.44 262.765L550.397 262.763C549.803 262.737 544.573 262.51 536.114 261.532C527.128 260.494 514.633 258.622 500.419 255.296C471.891 248.621 436.913 236.194 409.38 213.298L409.372 213.292C404.649 209.378 398.039 208.954 392.906 212.019H392.637L391.101 213.294C363.566 236.132 328.576 248.56 300.04 255.251C285.822 258.585 273.324 260.467 264.339 261.516C255.954 262.494 250.75 262.732 250.091 262.762C250.038 262.764 250.015 262.765 250.022 262.765H249.927L249.832 262.769C245.892 262.903 242.178 264.655 239.567 267.62L239.564 267.624C236.965 270.581 235.696 274.479 236.062 278.405L236.414 282.493C236.642 285.135 236.971 288.954 237.378 293.658C238.19 303.065 239.31 316.013 240.54 330.176C242.999 358.496 245.898 391.683 247.655 411.121L247.664 411.22C249.389 430.483 251.934 458.913 271.321 490.544C290.73 522.21 326.645 556.525 394.084 588.62L394.096 588.626L394.108 588.631C397.991 590.456 402.486 590.456 406.369 588.631L406.381 588.626L406.394 588.62C473.825 556.524 509.717 522.209 529.117 490.543C548.425 459.026 551.026 430.686 552.793 411.438L552.822 411.123L552.822 411.116C554.553 391.686 557.452 358.501 559.918 330.179C561.151 316.017 562.276 303.068 563.092 293.661C563.5 288.957 563.832 285.138 564.061 282.496L564.416 278.403L564.417 278.39L564.417 278.387C564.417 278.387 564.417 278.386 558.904 277.908L564.417 278.386ZM400.242 242.308C440.349 269.278 486.557 285.791 534.655 290.364C532.24 318.207 526.934 379.161 524.316 408.586C522.771 425.66 520.644 449.088 504.449 475.499C488.455 501.582 458.381 531.111 400.247 559.774C342.109 531.112 312.03 501.584 296.035 475.501C279.837 449.089 277.713 425.66 276.179 408.587C273.561 379.168 268.254 318.21 265.84 290.363C313.934 285.788 360.134 269.275 400.242 242.308Z" fill="#FEFCF9" fill-opacity="0.8"/>
<path d="M458 430.349L446.467 467H342V463.299H347.05C352.727 463.299 356.546 461.859 358.507 458.964C360.466 456.075 361.446 450.76 361.446 443.015V355.907C361.446 346.912 360.177 341.289 357.639 339.052C355.102 336.819 351.573 335.701 347.05 335.701H342V332H403.127V335.701C397.5 335.701 393.014 336.226 389.673 337.281C386.33 338.338 383.97 339.931 382.589 342.072C381.205 344.206 380.516 349.577 380.516 358.173V443.015C380.516 449.801 381.495 454.067 383.456 455.802C385.415 457.537 391.37 458.403 401.319 458.403H411.193C419.182 458.403 425.463 457.921 430.036 456.969C434.608 456.01 438.904 453.562 442.924 449.612C446.944 445.666 450.889 439.022 454.758 429.67L458 430.349Z" fill="#FEFCF9" fill-opacity="0.8"/>
</svg>
